HIERARCHY
ROOT Hips
{
	OFFSET 0.000000 0.000000 0.000000
	CHANNELS 6 Xposition Yposition Zposition Zrotation Yrotation Xrotation 
	JOINT LHipJoint
	{
		OFFSET 0.000000 0.000000 0.000000
		CHANNELS 3 Zrotation Yrotation Xrotation
		JOINT LeftUpLeg
		{
			OFFSET 1.363060 -1.794630 0.839290
			CHANNELS 3 Zrotation Yrotation Xrotation
			JOINT LeftLeg
			{
				OFFSET 2.448110 -6.726130 0.000000
				CHANNELS 3 Zrotation Yrotation Xrotation
				JOINT LeftFoot
				{
					OFFSET 2.562200 -7.039590 0.000000
					CHANNELS 3 Zrotation Yrotation Xrotation
					JOINT LeftToeBase
					{
						OFFSET 0.157640 -0.433110 2.322550
						CHANNELS 3 Zrotation Yrotation Xrotation
						End Site
						{
							OFFSET 0.000000 0.000000 0.000000
						}
					}
				}
			}
		}
	}
	JOINT RHipJoint
	{
		OFFSET 0.000000 0.000000 0.000000
		CHANNELS 3 Zrotation Yrotation Xrotation
		JOINT RightUpLeg
		{
			OFFSET -1.305520 -1.794630 0.839290
			CHANNELS 3 Zrotation Yrotation Xrotation
			JOINT RightLeg
			{
				OFFSET -2.542530 -6.985550 0.000000
				CHANNELS 3 Zrotation Yrotation Xrotation
				JOINT RightFoot
				{
					OFFSET -2.568260 -7.056230 0.000000
					CHANNELS 3 Zrotation Yrotation Xrotation
					JOINT RightToeBase
					{
						OFFSET -0.164730 -0.452590 2.363150
						CHANNELS 3 Zrotation Yrotation Xrotation
						End Site
						{
							OFFSET 0.000000 0.000000 0.000000
						}
					}
				}
			}
		}
	}
	JOINT LowerBack
	{
		OFFSET 0.000000 0.000000 0.000000
		CHANNELS 3 Zrotation Yrotation Xrotation
		JOINT Spine
		{
			OFFSET 0.028270 2.035590 -0.193380
			CHANNELS 3 Zrotation Yrotation Xrotation
			JOINT Spine1
			{
				OFFSET 0.056720 2.048850 -0.042750
				CHANNELS 3 Zrotation Yrotation Xrotation
				JOINT Neck
				{
					OFFSET 0.000000 0.000000 0.000000
					CHANNELS 3 Zrotation Yrotation Xrotation
					JOINT Neck1
					{
						OFFSET -0.054170 1.746240 0.172020
						CHANNELS 3 Zrotation Yrotation Xrotation
						JOINT Head
						{
							OFFSET 0.104070 1.761360 -0.123970
							CHANNELS 3 Zrotation Yrotation Xrotation
							End Site
							{
								OFFSET 0.000000 0.000000 0.000000
							}
						}
					}
				}
				JOINT LeftShoulder
				{
					OFFSET 0.000000 0.000000 0.000000
					CHANNELS 3 Zrotation Yrotation Xrotation
					JOINT LeftArm
					{
						OFFSET 3.362410 1.200890 -0.311210
						CHANNELS 3 Zrotation Yrotation Xrotation
						JOINT LeftForeArm
						{
							OFFSET 4.983000 -0.000000 -0.000000
							CHANNELS 3 Zrotation Yrotation Xrotation
							JOINT LeftHand
							{
								OFFSET 3.483560 -0.000000 -0.000000
								CHANNELS 3 Zrotation Yrotation Xrotation
								JOINT LeftFingerBase
								{
									OFFSET 0.000000 0.000000 0.000000
									CHANNELS 3 Zrotation Yrotation Xrotation
									JOINT LeftHandIndex1
									{
										OFFSET 0.715260 -0.000000 -0.000000
										CHANNELS 3 Zrotation Yrotation Xrotation
										End Site
										{
											OFFSET 0.000000 0.000000 0.000000
										}
									}
								}
								JOINT LThumb
								{
									OFFSET 0.000000 0.000000 0.000000
									CHANNELS 3 Zrotation Yrotation Xrotation
									End Site
									{
										OFFSET 0.000000 0.000000 0.000000
									}
								}
							}
						}
					}
				}
				JOINT RightShoulder
				{
					OFFSET 0.000000 0.000000 0.000000
					CHANNELS 3 Zrotation Yrotation Xrotation
					JOINT RightArm
					{
						OFFSET -3.136600 1.374050 -0.404650
						CHANNELS 3 Zrotation Yrotation Xrotation
						JOINT RightForeArm
						{
							OFFSET -5.241900 -0.000000 -0.000000
							CHANNELS 3 Zrotation Yrotation Xrotation
							JOINT RightHand
							{
								OFFSET -3.444170 -0.000000 -0.000000
								CHANNELS 3 Zrotation Yrotation Xrotation
								JOINT RightFingerBase
								{
									OFFSET 0.000000 0.000000 0.000000
									CHANNELS 3 Zrotation Yrotation Xrotation
									JOINT RightHandIndex1
									{
										OFFSET -0.622530 -0.000000 -0.000000
										CHANNELS 3 Zrotation Yrotation Xrotation
										End Site
										{
											OFFSET 0.000000 0.000000 0.000000
										}
									}
								}
								JOINT RThumb
								{
									OFFSET 0.000000 0.000000 0.000000
									CHANNELS 3 Zrotation Yrotation Xrotation
									End Site
									{
										OFFSET 0.000000 0.000000 0.000000
									}
								}
							}
						}
					}
				}
			}
		}
	}
}
MOTION
Frames: 5
Frame Time: 0.008333
14.270099 18.605895 2.206998 24.439161 -86.031621 -27.850293 -10.827374 6.380884 3.098422 2.635051 19.035680 1.246476 0.273622 1.001328 18.727005 2.532005 15.203616 33.569916 8.799600 0.000000 -64.420100 11.659215 -4.633551 -0.215006 -8.409609 -28.973426 9.326331 -0.605327 -1.166480 14.076148 -1.717713 -5.655093 37.552029 -3.373000 0.000000 -80.386500 -4.046189 -2.222577 -6.901145 -1.054297 -1.985591 -4.075091 -3.539551 -2.133208 0.885330 9.068829 -21.248804 -13.445253 0.410885 0.153858 -1.617347 0.000000 0.000000 0.000000 7.398273 13.001042 1.996665 -54.414740 8.785749 12.968462 -2.749983 -42.032036 -0.008297 -3.069067 5.961588 -0.152417 -0.111876 0.033190 0.000000 0.000000 0.000000 0.000000 0.000000 0.000000 0.000000 3.719748 -15.683883 1.777890 58.362132 -4.098499 2.268545 2.047802 42.091382 -0.007811 -4.644119 0.416381 -0.022002 0.141248 -0.131276 0.000000 0.000000 0.000000 0.000000 0.000000 0.000000 0.000000 
14.177880 18.769316 2.190852 24.616779 -86.041276 -28.217079 -10.829882 6.320262 3.056717 2.494351 19.011257 1.020381 0.264815 0.999064 18.496917 2.532984 15.123511 33.895516 8.809100 0.000001 -62.959600 11.683949 -4.520861 -0.262213 -8.238567 -28.813417 9.065114 -0.694277 -1.137898 14.050403 -1.899524 -7.726583 37.798360 -4.829500 0.000001 -78.556700 -4.200667 -2.191939 -6.776600 -1.079085 -1.936317 -4.067687 -3.462184 -2.084632 0.769902 8.964958 -21.223798 -13.499708 0.522793 0.166372 -1.646049 0.000000 0.000000 0.000000 7.743411 12.616208 2.100635 -52.669391 8.603636 13.494032 -2.609451 -44.379283 -0.006021 -4.064051 5.928217 -0.203313 -0.099541 0.038273 0.000000 0.000000 0.000000 0.000000 0.000000 0.000000 0.000000 3.211550 -15.513195 1.869173 56.787453 -3.938779 3.259937 1.920479 44.077729 -0.008128 -4.333145 0.155440 -0.010490 0.138439 -0.136589 -0.000000 0.000000 0.000000 0.000000 0.000000 0.000000 0.000000 
14.092220 18.916738 2.175371 24.635348 -86.024421 -28.417126 -10.830004 6.235602 2.979769 2.300977 18.962428 0.702522 0.247345 1.006839 18.443907 2.518045 15.119034 33.650735 8.769500 0.000000 -62.280100 11.701452 -4.380553 -0.366190 -8.077758 -28.785895 8.715130 -0.759813 -1.115375 14.180730 -2.056906 -9.768817 37.362994 -6.226400 -0.000001 -77.200800 -4.344028 -2.169171 -6.542850 -1.097060 -1.896395 -4.032449 -3.372578 -2.044347 0.676608 8.822585 -21.191755 -13.540886 0.638260 0.178943 -1.670550 0.000000 0.000000 0.000000 8.103980 12.254545 2.207865 -50.980013 8.358369 13.819800 -2.471591 -46.636039 -0.003405 -5.050381 5.875462 -0.252221 -0.085936 0.043943 0.000000 0.000000 0.000000 0.000000 0.000000 0.000000 0.000000 2.646310 -15.358761 1.955301 55.211704 -3.704013 4.212088 1.798328 45.981073 -0.008227 -4.017906 -0.042887 -0.002684 0.135491 -0.142096 -0.000000 0.000000 0.000000 0.000000 0.000000 0.000000 0.000000 
14.012350 19.048984 2.160862 24.311711 -85.986936 -28.268531 -10.837563 6.126801 2.866211 2.097489 18.941132 0.278517 0.221674 1.022395 18.563547 2.488231 15.120721 32.950380 8.652700 0.000000 -62.008501 11.704994 -4.224557 -0.515222 -7.900160 -28.869156 8.305189 -0.799245 -1.097782 14.366292 -2.191179 -11.653653 36.477410 -7.455500 -0.000000 -76.511901 -4.461125 -2.152314 -6.212938 -1.105181 -1.865563 -3.972355 -3.272769 -2.012080 0.605053 8.644008 -21.159679 -13.561860 0.754024 0.191034 -1.688234 0.000000 0.000000 0.000000 8.465617 11.917512 2.314021 -49.342052 8.075230 13.928030 -2.335783 -48.803132 -0.000475 -6.007119 5.808033 -0.298039 -0.071226 0.050206 0.000000 0.000000 0.000000 0.000000 0.000000 0.000000 0.000000 2.040464 -15.226375 2.033494 53.618518 -3.415013 5.105265 1.680568 47.816083 -0.008133 -3.709328 -0.173762 0.001819 0.132376 -0.147861 0.000000 0.000000 0.000000 0.000000 0.000000 0.000000 0.000000 
13.937817 19.166940 2.147191 23.732982 -85.925909 -27.867162 -10.850832 5.996103 2.721203 1.882318 18.935063 -0.215670 0.190791 1.042815 18.790977 2.452454 15.146515 31.980143 8.501900 -0.000000 -62.050200 11.700732 -4.055468 -0.714709 -7.755758 -29.110013 7.848500 -0.807339 -1.087369 14.597453 -2.288327 -13.140031 35.271034 -8.337400 0.000001 -76.076600 -4.558276 -2.141219 -5.786357 -1.105300 -1.843468 -3.886728 -3.164568 -1.987423 0.558221 8.437860 -21.143753 -13.561597 0.868889 0.202452 -1.698409 0.000000 0.000000 0.000000 8.819376 11.630508 2.416099 -47.747288 7.741577 13.822272 -2.201955 -50.866316 0.002726 -6.905867 5.726020 -0.338868 -0.055716 0.057153 0.000000 0.000000 0.000000 0.000000 0.000000 0.000000 0.000000 1.415245 -15.134247 2.100225 51.995079 -3.068852 5.932352 1.566199 49.583018 -0.007908 -3.432802 -0.227610 0.003215 0.129206 -0.154006 -0.000000 0.000000 0.000000 0.000000 0.000000 0.000000 0.000000 
